<?xml version="1.0" encoding="utf-8"?>
<!-- Generator: Adobe Illustrator 24.3.0, SVG Export Plug-In . SVG Version: 6.00 Build 0)  -->
<svg version="1.1" id="Layer_1" xmlns="http://www.w3.org/2000/svg" xmlns:xlink="http://www.w3.org/1999/xlink" x="0px" y="0px"
	 viewBox="0 0 100 100" style="enable-background:new 0 0 100 100;" xml:space="preserve">
<g>
	<path d="M0.98,47.27c0.26-1.92,0.44-3.86,0.8-5.77C3.8,30.53,8.89,21.24,17.14,13.71c0.65-0.59,1.33-1.15,2.01-1.71
		c0.84-0.69,1.78-0.67,2.33,0.02c0.58,0.73,0.43,1.54-0.47,2.27C13.76,20.21,8.63,27.62,6.02,36.61
		c-4.65,16.04-1.65,30.65,9.11,43.43c7.2,8.54,16.55,13.6,27.61,15.28c12.04,1.83,23.09-0.86,33.11-7.76
		c0.33-0.23,0.69-0.76,0.66-1.12c-0.33-5.26-0.72-10.51-1.1-15.84c-0.54-0.14-1.06-0.25-1.58-0.4c-3.42-1.02-5.78-4.04-5.9-7.54
		c-0.13-3.76,1.91-6.94,5.39-8.19c0.77-0.28,0.97-0.64,0.9-1.4c-0.25-3.01-0.44-6.03-0.65-9.03c-1.8,0.27-3.55,0.63-5.32,0.77
		c-5.83,0.47-11.45-0.17-16.42-3.58c-5.37-3.69-6.91-9.79-4.03-15.64c2.09-4.23,5.49-7.19,9.46-9.57c0.91-0.55,1.89-1.1,2.58-1.88
		c1.38-1.56,1.61-3.45,0.83-5.38c-0.81-2-2.36-3.18-4.49-3.45c-4.17-0.53-8.36-0.65-12.56-0.26c-6.35,0.59-12.22,2.61-17.69,5.84
		c-0.31,0.18-0.61,0.38-0.92,0.56c-0.92,0.52-1.78,0.38-2.22-0.37c-0.45-0.75-0.2-1.59,0.67-2.15c2.99-1.92,6.19-3.43,9.54-4.59
		c6.81-2.36,13.82-2.91,20.96-2.22c1.13,0.11,2.27,0.2,3.38,0.42c3.55,0.73,6.06,3.5,6.65,7.27c0.49,3.14-1.19,6.49-4.19,8.17
		c-3.63,2.03-6.86,4.49-8.96,8.18c-2.15,3.76-1.95,7.77,0.51,10.65c2.19,2.56,5.1,3.86,8.3,4.58c4.33,0.98,8.65,0.74,12.94-0.3
		c0.26-0.06,0.49-0.24,0.73-0.37c-0.2-0.23-0.36-0.51-0.61-0.68c-4.5-3.03-6.14-7.42-5.83-12.63c0.28-4.65,2.38-8.47,5.62-11.78
		c2.32-2.36,4.52-4.86,6.6-7.43c1.53-1.88,2.48-4.08,2.59-6.61c0.02-0.55,0.59-1.07,0.9-1.61c0.39,0,0.78,0,1.17,0
		c2.24,2.67,4.61,5.25,6.7,8.05c3.37,4.51,6.17,9.36,7.65,14.85c0.39,1.46,0.6,2.96,0.89,4.45c0,0.78,0,1.56,0,2.34
		c-0.06,0.22-0.15,0.43-0.17,0.65c-0.26,2.83-1.29,5.36-3.12,7.52c-0.72,0.85-1.65,1.53-2.5,2.3c3.29,2.77,5.04,6.06,5.07,10.08
		c0.02,2.39-0.17,4.81-0.53,7.18c-1.01,6.69-3.37,12.9-6.95,18.64c-0.21,0.34-0.36,0.76-0.39,1.16c-0.48,5.96-0.93,11.92-1.4,17.87
		c-0.2,2.5-1.27,3.8-3.67,4.56c-0.33,0.1-0.65,0.23-0.98,0.35c-0.85,0-1.69,0-2.54,0c-0.21-0.07-0.41-0.16-0.62-0.21
		c-2.29-0.6-4.2-2.14-4.1-4.94c0.05-1.38-0.19-2.77-0.31-4.26c-0.43,0.26-0.73,0.44-1.03,0.63c-7.28,4.63-15.25,7.16-23.85,7.58
		c-8.86,0.43-17.27-1.41-25.05-5.66C13.07,85.6,4.7,74.05,1.75,58.6c-0.34-1.81-0.52-3.65-0.78-5.48
		C0.98,51.17,0.98,49.22,0.98,47.27z M84.36,5.04c-0.95,1.67-1.7,3.48-2.88,4.94c-2.25,2.81-4.67,5.49-7.16,8.1
		c-2.7,2.82-4.35,6.06-4.48,9.97c-0.12,3.69,0.93,6.94,4.08,9.2c0.52,0.37,1.23,0.66,1.86,0.67c4.94,0.09,9.88,0.11,14.83,0.11
		c0.43,0,0.95-0.2,1.29-0.48c3.62-3.04,4.57-7.02,3.9-11.51c-0.52-3.51-1.91-6.72-3.6-9.81C89.99,12.17,87.29,8.45,84.36,5.04z
		 M77.6,59.04c0.18,2.51,0.35,4.91,0.51,7.3c0.29,4.18,0.56,8.36,0.85,12.55c0.37,5.32,0.77,10.63,1.09,15.95
		c0.06,0.99,0.44,1.56,1.35,1.89c1.19,0.43,2.35,0.41,3.51-0.07c0.64-0.26,1.06-0.67,1.1-1.44c0.09-1.69,0.25-3.37,0.39-5.05
		c0.37-4.63,0.73-9.26,1.1-13.89c0.3-3.82,0.61-7.64,0.9-11.46c0.15-1.9,0.28-3.8,0.43-5.77C85.07,59.04,81.38,59.04,77.6,59.04z
		 M76.35,41.02c0.35,5.03,0.7,9.97,1.05,14.96c3.94,0,7.79,0,11.68,0c0.39-5.01,0.78-9.95,1.17-14.96
		C85.58,41.02,81.04,41.02,76.35,41.02z M92.99,44.05c-0.67,8.51-1.31,16.76-1.97,25.17c0.18-0.21,0.26-0.28,0.3-0.36
		c2.73-6.16,4.24-12.59,3.98-19.36C95.22,47.54,94.39,45.81,92.99,44.05z M74.5,57.19c-2.57,1-3.91,3.25-3.59,5.79
		c0.28,2.2,2.18,4.18,4.3,4.38C74.97,64,74.74,60.65,74.5,57.19z"/>
	<path d="M19.99,62.89c-5.37,0-9.82-4.43-9.83-9.8c-0.01-5.42,4.46-9.9,9.86-9.89c5.37,0.01,9.82,4.46,9.84,9.82
		C29.89,58.42,25.43,62.88,19.99,62.89z M19.98,59.94c3.75,0.02,6.91-3.12,6.92-6.88c0.01-3.72-3.09-6.86-6.81-6.89
		c-3.77-0.03-6.93,3.06-6.97,6.83C13.07,56.73,16.22,59.91,19.98,59.94z"/>
	<path d="M26.94,39.31c-5.48-0.02-9.78-4.38-9.77-9.9c0.01-5.41,4.39-9.73,9.85-9.72c5.48,0.01,9.83,4.41,9.79,9.89
		C36.77,35.01,32.39,39.33,26.94,39.31z M33.82,29.5c0-3.8-3.02-6.86-6.77-6.85c-3.86,0-6.93,3-6.94,6.8
		c-0.01,3.82,3.03,6.9,6.84,6.9C30.81,36.34,33.82,33.34,33.82,29.5z"/>
	<path d="M33.94,63.62c5.47,0.03,9.83,4.44,9.8,9.91c-0.03,5.38-4.46,9.73-9.89,9.71c-5.45-0.02-9.85-4.46-9.81-9.91
		C24.08,67.95,28.53,63.59,33.94,63.62z M33.94,66.58c-3.86,0.01-6.92,3.03-6.93,6.83c-0.01,3.78,3.1,6.88,6.9,6.87
		c3.81-0.01,6.91-3.11,6.88-6.89C40.76,69.63,37.68,66.57,33.94,66.58z"/>
	<path d="M67.27,79.22c-0.11,0.8-0.18,1.61-0.35,2.4c-0.22,0.96-0.93,1.42-1.78,1.24c-0.87-0.18-1.3-0.83-1.09-1.85
		c0.55-2.63-0.05-4.9-1.99-6.77c-2.07-2-5.28-2.42-7.87-1.08c-2.61,1.36-4,4.14-3.6,7.18c0.36,2.69,2.63,5.03,5.4,5.61
		c2.04,0.43,3.85-0.05,5.52-1.24c0.31-0.22,0.65-0.46,1.01-0.55c0.7-0.17,1.31,0.06,1.62,0.75c0.31,0.69,0.17,1.34-0.43,1.84
		c-1.62,1.36-3.49,2.17-5.59,2.28c-5.76,0.31-10.25-3.73-10.6-9.48c-0.29-4.67,3.4-9.22,8.12-10.01
		C61.72,68.53,67.18,73.11,67.27,79.22z"/>
</g>
</svg>
