<?xml version="1.0" encoding="utf-8"?>
<!-- Generator: Adobe Illustrator 24.3.0, SVG Export Plug-In . SVG Version: 6.00 Build 0)  -->
<svg version="1.1" id="Layer_1" xmlns="http://www.w3.org/2000/svg" xmlns:xlink="http://www.w3.org/1999/xlink" x="0px" y="0px"
	 viewBox="0 0 100 100" style="enable-background:new 0 0 100 100;" xml:space="preserve">
<g>
	<path d="M16.01,87.88c-4.79,0-9.58,0-14.37,0c1.62-5.13,3.22-10.27,4.86-15.39c0.2-0.64,0.19-0.96-0.48-1.37
		c-3.61-2.22-3.51-7.33,0.17-9.44c0.57-0.33,0.72-0.68,0.71-1.29c-0.02-5.14-0.09-10.29,0.03-15.43c0.04-1.51-0.42-2.24-1.79-2.76
		c-2.11-0.8-4.02-1.94-4.87-4.23c0-0.52,0-1.04,0-1.55c0.63-1.97,2.13-3.04,3.91-3.89c9.59-4.56,19.11-9.25,28.75-13.68
		c5.33-2.45,10.28-5.87,16.28-6.71c0.78,0,1.55,0,2.33,0c2,0.32,3.98,0.69,5.84,1.6c12.76,6.26,25.53,12.51,38.32,18.73
		c1.87,0.91,3.43,2.03,4.01,4.14c0,0.45,0,0.91,0,1.36c-0.66,1.86-2.07,2.93-3.79,3.76c-4.04,1.95-8.04,3.97-12.08,5.91
		c-0.65,0.31-0.88,0.66-0.87,1.38c0.03,7.25,0,14.49,0.03,21.74c0.01,1.12-0.35,1.98-1.07,2.8c-2.73,3.15-5.86,5.84-9.41,8.01
		c-4.93,3.02-10.25,4.99-15.99,5.75c-1.79,0.24-3.59,0.38-5.38,0.57c-0.84,0-1.68,0-2.53,0c-0.31-0.05-0.63-0.12-0.94-0.16
		c-2.27-0.27-4.58-0.39-6.81-0.84c-9.14-1.84-16.81-6.26-22.99-13.26c-0.77-0.88-1.13-1.78-1.12-2.97
		c0.04-7.28,0.03-14.57,0.01-21.85c0-0.32-0.06-0.82-0.26-0.92c-1.85-0.97-3.73-1.87-5.67-2.83c-0.04,0.25-0.08,0.37-0.08,0.48
		c0,5.05-0.02,10.1,0.03,15.15c0,0.33,0.38,0.77,0.7,0.96c3.67,2.16,3.74,7.39,0.07,9.53c-0.59,0.34-0.63,0.62-0.45,1.21
		C12.77,77.54,14.38,82.71,16.01,87.88z M3.63,37.21c2.04,1.41,3.91,2.72,6.07,2.85c2.13,0.13,4.3-0.41,6.44-0.66
		c4.62-0.54,9.24-1.09,13.86-1.63c4.17-0.49,8.34-0.99,12.51-1.48c2.34-0.28,4.68-0.57,7.03-0.83c1.2-0.13,2.05,0.5,2.19,1.54
		c0.13,0.98-0.52,1.76-1.7,1.95c-0.96,0.15-1.92,0.25-2.88,0.37c-4.11,0.48-8.21,0.96-12.32,1.44c-4.17,0.49-8.34,0.98-12.51,1.47
		c-2.25,0.27-4.5,0.54-7.03,0.84c0.53,0.28,0.81,0.42,1.09,0.56c9.51,4.57,19.02,9.15,28.54,13.69c3.66,1.74,7.35,1.76,11.02-0.03
		c8.72-4.25,17.44-8.49,26.16-12.74c4.06-1.98,8.11-3.99,12.16-6c0.49-0.24,0.95-0.54,1.4-0.85c0.49-0.34,0.49-0.75-0.01-1.08
		c-0.46-0.3-0.94-0.56-1.43-0.8c-12.7-6.21-25.4-12.42-38.1-18.63c-3.76-1.84-7.52-1.83-11.28-0.02c-2.04,0.98-4.07,1.95-6.11,2.93
		C27.7,25.4,16.68,30.7,5.66,36.01C5.04,36.3,4.47,36.71,3.63,37.21z M20.67,49.61c-0.08,0.18-0.12,0.24-0.12,0.3
		c-0.01,6.89-0.02,13.79,0.01,20.68c0,0.34,0.21,0.76,0.46,1c1.7,1.63,3.3,3.41,5.19,4.8c11.2,8.24,23.53,9.9,36.66,5.78
		c6.25-1.96,11.56-5.56,15.93-10.47c0.31-0.34,0.52-0.9,0.53-1.36c0.03-6.57,0.02-13.14,0.02-19.71c0-0.27-0.04-0.54-0.07-0.89
		c-0.45,0.21-0.8,0.36-1.14,0.52c-6.99,3.42-13.96,6.85-20.96,10.26c-4.47,2.17-9,2.1-13.47,0.09c-3.71-1.67-7.34-3.49-11.01-5.25
		C28.69,53.45,24.71,51.54,20.67,49.61z"/>
</g>
</svg>
