<?xml version="1.0" encoding="utf-8"?>
<!-- Generator: Adobe Illustrator 24.3.0, SVG Export Plug-In . SVG Version: 6.00 Build 0)  -->
<svg version="1.1" id="Layer_1" xmlns="http://www.w3.org/2000/svg" xmlns:xlink="http://www.w3.org/1999/xlink" x="0px" y="0px"
	 viewBox="0 0 100 100" style="enable-background:new 0 0 100 100;" xml:space="preserve">
<g>
	<path d="M48.44,100c0-0.96,0-1.91,0-2.9c1.1,0,1.96,0,2.89,0c0.08,0.99,0.16,1.94,0.24,2.9C50.52,100,49.48,100,48.44,100z"/>
	<path d="M2.93,0c0,0.93,0,1.86,0,2.93c-1.02,0-1.97,0-2.93,0C0,1.97,0,1.01,0,0C0.98,0,1.95,0,2.93,0z"/>
	<path d="M100,2.93c-0.93,0-1.86,0-2.93,0c0-1.02,0-1.97,0-2.93c0.96,0,1.92,0,2.93,0C100,0.98,100,1.95,100,2.93z"/>
	<path d="M0,17.58c0.93,0,1.86,0,2.86,0c0,0.97,0,1.89,0,2.93c-0.95,0-1.9,0-2.86,0C0,19.53,0,18.55,0,17.58z"/>
	<path d="M100,20.51c-0.93,0-1.86,0-2.86,0c0-0.97,0-1.89,0-2.93c0.95,0,1.9,0,2.86,0C100,18.55,100,19.53,100,20.51z"/>
	<path d="M71.94,63.15c0-0.75,0-1.36,0-1.97c0-3.25,0.01-6.51-0.01-9.76c0-0.39-0.07-0.9-0.32-1.15c-1.86-1.95-3.78-3.85-5.72-5.81
		c-4.68,3.76-9.97,5.7-15.88,5.7c-5.88,0-11.15-1.91-16.13-5.89c-0.19,0.34-0.32,0.77-0.61,1.06c-1.52,1.57-3.1,3.07-4.59,4.66
		c-0.35,0.38-0.63,0.99-0.63,1.51c-0.05,3.48-0.03,6.96-0.03,10.45c0,0.35,0,0.7,0,1.16c-1.96,0-3.83,0-5.63,0
		c-0.11,0.16-0.17,0.22-0.17,0.27c-0.33,7.03,0,13.92,3.84,20.16c4.45,7.22,10.86,11.55,19.16,13.15c0.12,0.02,0.24,0.06,0.34,0.08
		c0.03,0.11,0.07,0.17,0.06,0.23c-0.12,0.83-0.25,1.66-0.41,2.69c-1.38-0.33-2.74-0.56-4.04-0.99
		c-11.6-3.83-18.82-11.72-21.31-23.66c-0.71-3.42-0.49-7.05-0.59-10.59c-0.03-1.01-0.25-1.45-1.26-1.85
		c-2.72-1.08-4.29-3.18-4.56-6.14c-0.26-2.73,0.09-5.31,2.31-7.22c0.82-0.7,1.84-1.19,2.83-1.65c0.48-0.22,0.72-0.4,0.73-0.94
		c0.2-6.18,2.12-11.77,5.74-16.8c0.19-0.27,0.23-0.72,0.19-1.07c-1.04-9.1,1.8-16.7,8.71-22.76c0.1-0.09,0.2-0.17,0.31-0.24
		c0.05-0.03,0.12-0.05,0.24-0.09c0.55,0.69,1.11,1.39,1.74,2.18c-5.87,4.99-8.76,11.31-8.23,19c0.4,5.75,2.86,10.6,7.07,14.55
		c8.09,7.59,20.64,7.78,29.37,0.42c8.3-6.99,10.05-19.47,4.01-28.73c-5.99-9.19-18.57-13.26-29.79-6.9
		c-0.48-0.78-0.95-1.57-1.57-2.58c1.64-0.71,3.16-1.51,4.77-2.04c14.6-4.85,29.54,3.78,32.66,18.86c0.57,2.73,0.59,5.49,0.23,8.25
		c-0.05,0.37,0.06,0.84,0.26,1.14c3.08,4.54,5.13,9.51,5.53,14.99c0.13,1.78,0.6,2.6,2.29,3.28c2.47,0.98,3.75,3.16,4.02,5.8
		c0.32,3.06-0.28,5.87-2.96,7.8c-0.72,0.52-1.59,0.88-2.43,1.18c-0.56,0.19-0.77,0.4-0.77,1c0.02,2.25,0.03,4.49-0.03,6.74
		c-0.36,13.49-10.56,25.76-23.75,28.61c-0.69,0.15-1.39,0.27-2.15,0.42c-0.16-0.99-0.3-1.9-0.46-2.88c3.18-0.54,6.18-1.47,8.95-3.02
		c8.19-4.61,13.05-11.56,14.25-20.9c0.4-3.14,0.27-6.35,0.39-9.68C75.83,63.15,73.94,63.15,71.94,63.15z M26.31,33.19
		c-2.38,3.92-3.83,7.97-4.01,12.35c-0.19,4.61-0.11,9.24-0.14,13.85c0,0.25,0.05,0.49,0.08,0.75c0.97,0,1.86,0,2.85,0
		c0-0.42,0-0.77,0-1.12c0-2.8,0.03-5.6-0.02-8.39c-0.02-0.89,0.23-1.51,0.88-2.13c2.04-1.96,4.01-3.98,6.06-6.02
		C29.44,39.82,27.6,36.79,26.31,33.19z M77.78,60.16c0-4.38,0.06-8.64-0.03-12.89c-0.04-1.84-0.27-3.69-0.62-5.5
		c-0.58-3-1.75-5.8-3.38-8.41c-0.83,1.64-1.53,3.28-2.46,4.79c-0.94,1.54-2.1,2.94-3.22,4.47c2.02,2.01,4.12,4.06,6.16,6.15
		c0.34,0.35,0.59,0.93,0.6,1.42c0.05,2.96,0.03,5.92,0.03,8.88c0,0.35,0,0.7,0,1.1C75.88,60.16,76.77,60.16,77.78,60.16z
		 M80.77,59.99c2.4-0.71,3.46-2.7,3.2-5.75c-0.16-1.9-1.61-3.6-3.2-3.75C80.77,53.62,80.77,56.76,80.77,59.99z M19.18,50.58
		c-1.95,0.49-2.95,2.25-2.89,4.89c0.06,2.29,1.16,3.96,2.89,4.32C19.18,56.74,19.18,53.7,19.18,50.58z"/>
	<path d="M51.46,38.27c4.4,0.37,8.09-1.03,11.22-4.25c0.7,0.63,1.39,1.25,2.15,1.93c-1.88,2.09-4.08,3.6-6.69,4.41
		c-1.5,0.47-3.1,0.79-4.67,0.83c-3.05,0.08-6.14,0.16-9.15-0.21c-6.38-0.78-11.97-6.21-13.02-12.56c-0.4-2.44-0.34-4.97-0.49-7.55
		c1.96,0,3.68,0,5.27,0c0.95-2.5,1.85-4.88,2.81-7.43c2.47,1.1,4.79,2.14,7.21,3.23c1.21-1.18,2.54-2.47,3.82-3.71
		c1.3,1.27,2.62,2.56,3.84,3.74c2.45-1.09,4.78-2.13,7.29-3.25c0.84,2.29,1.67,4.43,2.38,6.6c0.22,0.66,0.47,0.86,1.13,0.84
		c1.42-0.05,2.85-0.01,4.25-0.01c0.7,4.19-0.2,9.66-2.02,12.2c-0.78-0.44-1.56-0.88-2.44-1.37c1.28-2.47,1.87-5.05,1.61-7.8
		C58.76,22.73,50.68,28.97,51.46,38.27z M33.97,23.84c-0.91,8.76,6.72,15.44,14.4,14.36C49.38,30.16,42.39,22.87,33.97,23.84z
		 M49.95,30.11c1.11-2.22,2.47-4.02,4.22-5.51c0.16-0.14,0.31-0.46,0.26-0.65c-0.73-2.82-2.32-5.08-4.47-7.03
		c-2.05,1.86-3.6,3.95-4.35,6.55c-0.1,0.35-0.01,0.95,0.23,1.17C47.52,26.19,48.88,27.94,49.95,30.11z M55.65,19.1
		c0.54,1.23,1.02,2.32,1.5,3.42c1.19-0.45,2.38-0.9,3.66-1.39c-0.47-1.3-0.91-2.53-1.39-3.87C58.06,17.93,56.85,18.52,55.65,19.1z
		 M42.76,22.53c0.49-1.13,0.96-2.22,1.49-3.45c-1.21-0.58-2.42-1.17-3.76-1.81c-0.48,1.38-0.92,2.64-1.35,3.89
		C40.44,21.65,41.56,22.07,42.76,22.53z"/>
	<path d="M59.95,80.85c-4.55,7.61-15.63,7.61-19.91,0.01c0.8-0.47,1.6-0.94,2.39-1.41c3.84,5.83,11.59,5.38,15.05-0.02
		C58.3,79.9,59.13,80.38,59.95,80.85z"/>
	<path d="M91.22,14.6c-1.05,0-1.93,0-2.91,0c0-0.95,0-1.87,0-2.87c-1.01,0-1.91,0-2.88,0c0-0.99,0-1.91,0-2.91c0.9,0,1.79,0,2.8,0
		c0-1,0-1.92,0-2.9c1.03,0,1.95,0,2.95,0c0,0.92,0,1.82,0,2.83c1,0,1.92,0,2.9,0c0,1.01,0,1.91,0,2.91c-0.9,0-1.83,0-2.86,0
		C91.22,12.69,91.22,13.61,91.22,14.6z"/>
	<path d="M11.81,14.6c-1.06,0-1.9,0-2.88,0c0-0.95,0-1.87,0-2.88c-1.03,0-1.92,0-2.89,0c0-0.99,0-1.88,0-2.88c0.88,0,1.77,0,2.8,0
		c0-1.01,0-1.93,0-2.92c1.03,0,1.92,0,2.96,0c0,0.91,0,1.83,0,2.84c1.03,0,1.93,0,2.89,0c0,1.02,0,1.94,0,2.96
		c-0.96,0-1.86,0-2.88,0C11.81,12.73,11.81,13.65,11.81,14.6z"/>
	<path d="M41.1,31.01c-0.91,0-1.8,0-2.77,0c0-0.91,0-1.83,0-2.81c0.9,0,1.8,0,2.77,0C41.1,29.12,41.1,30.04,41.1,31.01z"/>
</g>
</svg>
